<svg width="48" height="29" viewBox="0 0 48 29" fill="none" xmlns="http://www.w3.org/2000/svg">
<path d="M25.5739 5.60086L22.2887 0.0268555H39.4416C44.4501 0.753899 46.8197 4.7661 47.0082 7.405C47.1967 10.0439 46.5129 12.0635 45.8773 13.1136C44.2657 15.7763 41.5737 17.0833 38.5799 17.2336L44.7463 28.1392H38.5799L29.263 11.9288H38.2837C38.2837 11.9288 41.8381 11.8211 41.7304 8.6706C41.6227 5.52007 38.5799 5.35851 38.5799 5.35851L25.5739 5.60086Z" fill="black" fill-opacity="0.47"/>
<path fill-rule="evenodd" clip-rule="evenodd" d="M22.2416 0H39.4435L39.4454 0.0002793C44.4679 0.729346 46.8458 4.75312 47.035 7.40316C47.2239 10.0474 46.5389 12.0725 45.9003 13.1277C44.291 15.7864 41.6083 17.0972 38.6247 17.2583L44.7924 28.1662H38.5643L29.2164 11.902H38.2832L38.2834 11.902L38.2852 11.9019L38.2881 11.9018C38.2894 11.9017 38.2909 11.9017 38.2927 11.9016C38.2992 11.9013 38.3091 11.9008 38.3219 11.9C38.3477 11.8985 38.3855 11.8958 38.4337 11.8913C38.53 11.8823 38.6677 11.8658 38.8326 11.8363C39.1626 11.7773 39.601 11.666 40.0357 11.457C40.4704 11.248 40.9005 10.9418 41.2152 10.4934C41.5297 10.0454 41.7302 9.45379 41.7035 8.67159C41.65 7.10707 40.8688 6.28696 40.1016 5.85666C39.7174 5.64118 39.3363 5.5233 39.0511 5.45933C38.9086 5.42735 38.7901 5.40887 38.7074 5.39839C38.6661 5.39315 38.6337 5.38991 38.6117 5.38799C38.6007 5.38703 38.5923 5.38639 38.5867 5.386C38.5839 5.38581 38.5818 5.38567 38.5804 5.38559L38.5793 5.38552L25.5586 5.62814L22.2416 0ZM38.5799 5.35858C38.5813 5.33169 38.5813 5.33169 38.5814 5.33169L38.582 5.33173L38.5837 5.33183C38.5853 5.33193 38.5875 5.33207 38.5905 5.33228C38.5964 5.33269 38.6051 5.33335 38.6164 5.33434C38.639 5.33632 38.6721 5.33963 38.7142 5.34496C38.7983 5.35563 38.9185 5.37438 39.0629 5.40678C39.3516 5.47155 39.7379 5.59097 40.1279 5.80969C40.909 6.24781 41.7031 7.08375 41.7573 8.66975C41.7844 9.46281 41.581 10.0661 41.2593 10.5244C40.9379 10.9823 40.4995 11.2937 40.0591 11.5055C39.6187 11.7172 39.1752 11.8297 38.8421 11.8894C38.6755 11.9192 38.5363 11.9358 38.4387 11.9449C38.3899 11.9495 38.3515 11.9522 38.3252 11.9538C38.3188 11.9542 38.3132 11.9545 38.3083 11.9548C38.303 11.955 38.2986 11.9552 38.2951 11.9554C38.2916 11.9556 38.289 11.9557 38.2872 11.9557L38.2852 11.9558L38.2847 11.9558L38.2845 11.9558C38.2845 11.9558 38.2845 11.9558 38.2837 11.9289L38.2845 11.9558L38.2841 11.9558H29.3095L38.5954 28.1124H44.7001L38.535 17.2089L38.5785 17.2067C41.5651 17.0568 44.2481 15.7534 45.8542 13.0998C46.4868 12.0545 47.1694 10.0406 46.9813 7.40699C46.7937 4.77957 44.4329 0.779623 39.4396 0.0538551H22.3358L25.5891 5.57371L38.5803 5.33164L38.5813 5.33169L38.5799 5.35858Z" fill="black" fill-opacity="0.47"/>
<path d="M19.8922 28.0854L16.7147 22.7268H9.17501L16.1492 11.0133L25.9509 28.0854H32.2788L16.1492 0.107666L0.0465698 28.0854H4.40883H19.8922Z" fill="black" fill-opacity="0.47"/>
<path fill-rule="evenodd" clip-rule="evenodd" d="M16.1492 0.0535889L32.3254 28.1122H25.9353L16.1488 11.0665L9.22238 22.6997H16.7301L19.9394 28.1122H0L16.1492 0.0535889ZM16.1493 0.161483L0.0931338 28.0583H19.8449L16.6994 22.7536H9.12763L16.1497 10.9598L25.9665 28.0583H32.2322L16.1493 0.161483Z" fill="black" fill-opacity="0.47"/>
</svg>
