<svg width="23" height="17" viewBox="0 0 23 17" fill="none" xmlns="http://www.w3.org/2000/svg">
<path d="M21.0889 6.84143H1.40593C0.62946 6.84143 0 7.47089 0 8.24736C0 9.02383 0.62946 9.65329 1.40593 9.65329H21.0889C21.8654 9.65329 22.4948 9.02383 22.4948 8.24736C22.4948 7.47089 21.8654 6.84143 21.0889 6.84143Z" fill="#981D87"/>
<path d="M1.40593 3.09237H21.0889C21.8654 3.09237 22.4948 2.46291 22.4948 1.68645C22.4948 0.909978 21.8654 0.280518 21.0889 0.280518H1.40593C0.62946 0.280518 0 0.909978 0 1.68645C0 2.46291 0.62946 3.09237 1.40593 3.09237Z" fill="#981D87"/>
<path d="M21.0889 13.4025H1.40593C0.62946 13.4025 0 14.0319 0 14.8084C0 15.5849 0.62946 16.2143 1.40593 16.2143H21.0889C21.8654 16.2143 22.4948 15.5849 22.4948 14.8084C22.4948 14.0319 21.8654 13.4025 21.0889 13.4025Z" fill="#981D87"/>
</svg>
