<svg width="13" height="12" viewBox="0 0 13 12" fill="none" xmlns="http://www.w3.org/2000/svg">
<path d="M7.56045 5.99999L12.2803 1.28068C12.5732 0.987705 12.5732 0.512692 12.2803 0.219735C11.9873 -0.0732451 11.5123 -0.0732451 11.2193 0.219735L6.49999 4.93953L1.78068 0.219735C1.4877 -0.0732451 1.01269 -0.0732451 0.719735 0.219735C0.426778 0.512716 0.426755 0.987728 0.719735 1.28068L5.43953 5.99999L0.719735 10.7193C0.426755 11.0123 0.426755 11.4873 0.719735 11.7803C1.01272 12.0732 1.48773 12.0732 1.78068 11.7803L6.49999 7.06045L11.2193 11.7803C11.5123 12.0732 11.9873 12.0732 12.2802 11.7803C12.5732 11.4873 12.5732 11.0123 12.2802 10.7193L7.56045 5.99999Z" fill="#981D87"/>
</svg>
