<svg width="7" height="16" viewBox="0 0 7 16" fill="none" xmlns="http://www.w3.org/2000/svg">
<path d="M6.19479 15.1666C6.11665 15.1671 6.03919 15.1521 5.96685 15.1225C5.89451 15.093 5.82871 15.0495 5.77323 14.9944L0.922292 10.1435C0.645823 9.86772 0.426474 9.54011 0.276811 9.17944C0.127148 8.81876 0.0501099 8.43211 0.0501099 8.04161C0.0501099 7.65112 0.127148 7.26446 0.276811 6.90379C0.426474 6.54312 0.645823 6.21551 0.922292 5.93974L5.77323 1.0888C5.82859 1.03344 5.89431 0.989527 5.96664 0.959566C6.03898 0.929605 6.1165 0.914185 6.19479 0.914185C6.27308 0.914185 6.35061 0.929605 6.42294 0.959566C6.49527 0.989527 6.56099 1.03344 6.61635 1.0888C6.67171 1.14416 6.71563 1.20988 6.74559 1.28222C6.77555 1.35455 6.79097 1.43207 6.79097 1.51036C6.79097 1.58866 6.77555 1.66618 6.74559 1.73851C6.71563 1.81084 6.67171 1.87657 6.61635 1.93193L1.76542 6.78286C1.43185 7.11685 1.24448 7.56958 1.24448 8.04161C1.24448 8.51365 1.43185 8.96638 1.76542 9.30036L6.61635 14.1513C6.67201 14.2065 6.71618 14.2722 6.74632 14.3445C6.77647 14.4169 6.79199 14.4945 6.79199 14.5729C6.79199 14.6512 6.77647 14.7289 6.74632 14.8012C6.71618 14.8736 6.67201 14.9392 6.61635 14.9944C6.56087 15.0495 6.49508 15.093 6.42274 15.1225C6.3504 15.1521 6.27293 15.1671 6.19479 15.1666Z" fill="black"/>
</svg>
