<svg width="301" height="68" viewBox="0 0 301 68" fill="none" xmlns="http://www.w3.org/2000/svg">
<path d="M187.483 23.4352L198.31 35.1925C195.968 37.6807 193.132 38.9367 189.864 38.9367C185.038 38.9367 181.402 35.7569 181.402 31.5357C181.402 28.1969 183.56 25.3351 187.483 23.4352ZM190.767 5.19901C194.123 5.19901 196.456 7.23408 196.456 10.1436C196.456 12.8782 194.083 15.3744 189.576 17.3538C187.211 15.0961 185.126 12.8305 185.126 10.1436C185.126 7.23408 187.443 5.19901 190.759 5.19901L190.767 5.19901ZM205.964 34.9222C209.24 30.6772 210.958 25.8518 211.206 20.16L211.222 19.7545L205.453 19.7545L205.437 20.1202C205.213 24.2937 204.094 27.8789 202.105 30.7964L192.98 20.9947C199.292 18.0692 202.353 14.333 202.353 9.60303C202.353 3.87144 197.854 0.174926 190.887 0.174926C183.919 0.174925 179.061 4.10993 179.061 9.96076C179.061 13.1406 180.539 16.1455 183.847 19.6512C177.95 22.2984 174.962 26.3288 174.962 31.647C174.962 39.0082 180.731 43.9528 189.321 43.9528C194.258 43.9528 198.501 42.3152 201.953 39.0877L205.708 43.2294L213.691 43.2294L205.972 34.9142L205.964 34.9222Z" fill="#848686"/>
<path d="M52.9832 18.1884C48.3489 15.6526 45.5363 13.8957 45.5363 10.859C45.5363 7.8223 48.4048 5.97007 53.2149 5.97007C56.1314 5.97007 58.7761 6.56628 61.2931 7.7905L61.7885 8.02899L62.4916 2.08276L62.196 1.98737C59.3994 1.05728 56.3631 0.588256 53.159 0.588256C44.3777 0.588256 38.9204 4.77764 38.9204 11.5188C38.9204 15.6049 41.669 19.6194 46.2794 22.2745C47.0624 22.7276 47.8055 23.1489 48.5247 23.5544C53.8781 26.5831 57.1062 28.4115 57.1062 32.3704C57.1062 35.7727 54.0699 37.9748 49.3636 37.9747C46.3513 37.9747 43.2351 37.1241 39.8473 35.3832L39.3439 35.1209L38.6487 41.5441L38.9204 41.6554C42.1245 42.9034 45.776 43.5394 49.7791 43.5394C58.2008 43.5394 64.0737 38.404 64.0737 31.0507C64.0737 25.3907 60.0066 22.0519 52.9752 18.1964" fill="#981D87"/>
<path d="M105.016 0.890381L96.8895 0.89038L80.158 18.578L80.158 0.89038L73.5421 0.890379L73.5421 43.2374L80.158 43.2374L80.158 23.5465L97.9682 43.2374L106.55 43.2374L85.847 20.6926L105.016 0.890381Z" fill="#981D87"/>
<path d="M117.496 43.2374L117.496 0.890381L110.88 0.890381L110.88 43.2374L117.496 43.2374Z" fill="#981D87"/>
<path d="M155.682 31.9491C155.682 32.8394 155.746 33.8888 155.873 35.105C155.602 34.3975 155.354 33.8331 155.138 33.4356L136.841 0.89038L128.882 0.890379L128.882 43.2374L135.019 43.2374L135.019 12.3615C135.019 11.7017 134.923 10.5967 134.715 8.80013C134.987 9.52354 135.227 10.0562 135.434 10.39L153.924 43.0386L154.036 43.2374L161.818 43.2374L161.818 0.890381L155.682 0.890381L155.682 31.9491Z" fill="#981D87"/>
<path d="M246.603 6.21652C249.703 6.21652 252.723 6.85249 255.847 8.16415L256.359 8.37879L256.638 2.51206L256.375 2.41666C253.41 1.32758 250.046 0.771118 246.363 0.771118C232.596 0.771117 223.695 9.22144 223.695 22.3063C223.695 35.3912 232.316 43.3645 246.179 43.3645C249.894 43.3645 253.258 42.8717 256.175 41.9018L256.454 41.8144L256.247 35.7648L255.735 35.9715C252.843 37.148 249.799 37.7363 246.666 37.7363C236.615 37.7363 230.614 31.8537 230.614 22.0042C230.614 12.1548 236.743 6.21652 246.611 6.21652" fill="#981D87"/>
<path d="M281.648 38.4518C274.049 38.4518 269.151 31.9968 269.151 22.0042C269.151 12.0117 274.049 5.49314 281.648 5.49314C289.246 5.49314 294.2 11.972 294.2 22.0042C294.2 32.0365 289.27 38.4518 281.64 38.4518M281.648 0.111327C269.71 0.111327 262.287 8.5219 262.287 22.0678C262.287 35.6138 269.71 44.0244 281.648 44.0244C293.585 44.0244 301 35.6058 301 22.0678C301 8.52985 293.585 0.111328 281.648 0.111327Z" fill="#981D87"/>
<path d="M6.20839 27.1396L6.20839 18.8165C6.20839 10.0243 9.50836 5.5726 16.0204 5.5726C22.5324 5.5726 25.5288 9.61094 25.5288 18.2759L25.5288 27.1396L6.20839 27.1396ZM15.6609 -7.2123e-07C5.26556 0.206686 -7.91329e-06 6.49474 -8.44668e-06 18.6972L-9.51866e-06 43.2214L6.20839 43.2214L6.20839 32.5691L25.5288 32.5691L25.5288 43.2214L32.1607 43.2214L32.1607 18.0931C32.1607 6.44704 26.8312 0.206687 16.7235 -6.74779e-07L15.6609 -7.2123e-07Z" fill="#981D87"/>
<path d="M0.215706 54.2156L7.87036 54.2156L7.87036 56.4653L5.34545 56.4653L5.34544 66.2114L2.67671 66.2114L2.67671 56.4653L0.215706 56.4653L0.215706 54.2156Z" fill="#848686"/>
<path d="M15.4691 54.2156L23.0358 54.2156L23.0358 56.4494L18.0899 56.4494L18.0899 58.6196L23.0358 58.6196L23.0358 60.8137L18.0899 60.8137L18.0899 63.9696L23.0358 63.9696L23.0358 66.2114L15.4691 66.2114L15.4691 54.2156Z" fill="#848686"/>
<path d="M30.3789 54.2156L33.3432 54.2156L36.2517 58.0631L39.1681 54.2156L42.1325 54.2156L37.7378 60.0267L42.4121 66.2114L39.4478 66.2114L36.2597 61.9902L33.0716 66.2114L30.0832 66.2114L34.7655 60.0267L30.3789 54.2156Z" fill="#848686"/>
<path d="M50.1706 54.2156L52.8394 54.2156L52.8394 58.7388L57.4657 58.7388L57.4657 54.2156L60.1265 54.2156L60.1265 66.2114L57.4657 66.2114L57.4657 60.9488L52.8394 60.9488L52.8394 66.2114L50.1706 66.2114L50.1706 54.2156Z" fill="#848686"/>
<path d="M79.1592 54.2156L79.1592 66.2114L76.5224 66.2114L76.5224 58.6991L71.3608 66.2114L69.0676 66.2114L69.0676 54.2156L71.7043 54.2156L71.7043 61.9663L76.9379 54.2156L79.1592 54.2156Z" fill="#848686"/>
<path d="M88.1322 54.2156L90.793 54.2156L90.793 58.3493L94.5564 54.2156L97.7205 54.2156L92.8864 59.5656L98.1919 66.2114L95.0677 66.2114L90.793 60.8773L90.793 66.2114L88.1322 66.2114L88.1322 54.2156Z" fill="#848686"/>
<path d="M111.432 57.3954L109.578 61.5132L113.286 61.5132L111.44 57.3954M110.089 54.2156L112.766 54.2156L118.096 66.2114L115.355 66.2114L114.268 63.7391L108.619 63.7391L107.493 66.2114L104.752 66.2114L110.089 54.2156Z" fill="#848686"/>
<path d="M142.937 57.3954L139.901 64.065L145.958 64.065L142.929 57.3954M141.571 54.2156L144.24 54.2156L148.698 64.065L150.24 64.065L150.24 68L147.691 68L147.691 66.2034L138.167 66.2034L138.167 68L135.618 68L135.618 64.065L137.152 64.065L141.587 54.2156L141.571 54.2156Z" fill="#848686"/>
<path d="M166.7 66.2114L162.865 57.3874L158.966 66.2114L156.169 66.2114L161.515 54.2156L164.191 54.2156L169.521 66.2114L166.7 66.2114Z" fill="#848686"/>
<path d="M182.417 59.1522L182.417 56.4415L181.698 56.4415C181.043 56.4415 180.571 56.4733 180.284 56.5448C179.996 56.6164 179.756 56.7594 179.58 56.982C179.405 57.2046 179.309 57.4829 179.309 57.8167C179.309 58.3096 179.493 58.6594 179.852 58.8502C180.212 59.0489 180.795 59.1443 181.602 59.1443L182.425 59.1443M185.062 54.1997L185.062 66.1955L182.425 66.1955L182.425 61.3702L181.762 61.3702L178.981 66.1955L176.105 66.1955L179.237 60.9965C177.423 60.5434 176.512 59.4941 176.512 57.8485C176.512 57.2603 176.608 56.7515 176.8 56.3143C176.992 55.877 177.263 55.5114 177.615 55.2093C177.974 54.9072 178.382 54.6846 178.845 54.5415C179.309 54.3984 179.684 54.311 179.964 54.2951C180.236 54.2713 181.003 54.2395 182.265 54.2077L185.062 54.2077L185.062 54.1997Z" fill="#848686"/>
<path d="M205.844 63.0872C206.539 63.9299 207.362 64.3512 208.297 64.3512C208.921 64.3512 209.424 64.2001 209.807 63.8981C210.191 63.596 210.383 63.1906 210.383 62.6818C210.383 62.173 210.199 61.7756 209.823 61.4496C209.448 61.1237 208.673 60.9568 207.498 60.9568L206.931 60.9568L206.931 58.9217L207.498 58.9217C208.193 58.9217 208.721 58.7865 209.08 58.5083C209.44 58.2301 209.624 57.8564 209.624 57.3874C209.624 56.9582 209.472 56.6163 209.168 56.3699C208.865 56.1235 208.465 55.9963 207.97 55.9963C207.378 55.9963 206.771 56.2506 206.148 56.7515L204.598 55.249C205.437 54.5972 206.132 54.2076 206.691 54.0804C207.251 53.9532 207.762 53.8896 208.233 53.8896C209.368 53.8896 210.319 54.1758 211.086 54.7482C211.853 55.3206 212.245 56.0917 212.245 57.0535C212.245 57.4828 212.157 57.9041 211.989 58.3096C211.813 58.715 211.334 59.1522 210.543 59.6053C212.165 60.2334 212.972 61.2986 212.972 62.809C212.972 63.9219 212.54 64.8202 211.677 65.4959C210.814 66.1716 209.704 66.5135 208.345 66.5135C207.49 66.5135 206.723 66.3783 206.044 66.108C205.365 65.8377 204.63 65.2574 203.831 64.3671L205.844 63.0872Z" fill="#848686"/>
<path d="M223.894 58.8978L224.733 58.8978C225.388 58.8978 225.852 58.8581 226.108 58.7786C226.363 58.6991 226.571 58.564 226.715 58.3732C226.859 58.1824 226.939 57.9598 226.939 57.6895C226.939 57.2284 226.731 56.8866 226.315 56.672C226.012 56.513 225.452 56.4335 224.637 56.4335L223.894 56.4335L223.894 58.8978ZM221.257 54.2076L224.054 54.2076C225.564 54.2076 226.659 54.3269 227.322 54.5733C227.993 54.8118 228.521 55.2093 228.904 55.7498C229.288 56.2904 229.487 56.9423 229.487 57.6975C229.487 58.5322 229.232 59.2317 228.728 59.7882C228.225 60.3447 227.538 60.7262 226.675 60.9488C226.163 61.076 225.237 61.1396 223.894 61.1396L223.894 66.2193L221.257 66.2193L221.257 54.2235L221.257 54.2076Z" fill="#848686"/>
<path d="M237.861 54.2156L245.42 54.2156L245.42 56.4494L240.482 56.4494L240.482 58.6196L245.42 58.6196L245.42 60.8137L240.482 60.8137L240.482 63.9696L245.42 63.9696L245.42 66.2114L237.861 66.2114L237.861 54.2156Z" fill="#848686"/>
<path d="M253.658 54.2156L256.335 54.2156L256.335 58.7388L260.953 58.7388L260.953 54.2156L263.622 54.2156L263.622 66.2114L260.953 66.2114L260.953 60.9488L256.335 60.9488L256.335 66.2114L253.658 66.2114L253.658 54.2156Z" fill="#848686"/>
<path d="M282.654 54.2156L282.654 66.2114L280.018 66.2114L280.018 58.6991L274.848 66.2114L272.555 66.2114L272.555 54.2156L275.192 54.2156L275.192 61.9663L280.433 54.2156L282.654 54.2156Z" fill="#848686"/>
<path d="M297.117 59.1522L297.117 56.4415L296.39 56.4415C295.734 56.4415 295.263 56.4733 294.975 56.5448C294.688 56.6164 294.456 56.7594 294.272 56.982C294.088 57.2046 294.001 57.4829 294.001 57.8167C294.001 58.3096 294.184 58.6594 294.544 58.8502C294.903 59.0489 295.487 59.1443 296.294 59.1443L297.117 59.1443M299.754 54.1997L299.754 66.1955L297.117 66.1955L297.117 61.3702L296.462 61.3702L293.681 66.1955L290.804 66.1955L293.937 60.9965C292.115 60.5434 291.212 59.4941 291.212 57.8485C291.212 57.2603 291.308 56.7515 291.5 56.3143C291.691 55.877 291.963 55.5114 292.315 55.2093C292.666 54.9072 293.082 54.6846 293.545 54.5415C294.009 54.3984 294.384 54.311 294.656 54.2951C294.935 54.2713 295.702 54.2395 296.965 54.2077L299.754 54.2077L299.754 54.1997Z" fill="#848686"/>
</svg>
