<svg width="31" height="23" viewBox="0 0 31 23" fill="none" xmlns="http://www.w3.org/2000/svg">
<path d="M28.5889 9.34143H1.90593C0.85332 9.34143 0 10.1948 0 11.2474C0 12.3 0.85332 13.1533 1.90593 13.1533H28.5889C29.6415 13.1533 30.4948 12.3 30.4948 11.2474C30.4948 10.1948 29.6415 9.34143 28.5889 9.34143Z" fill="black"/>
<path d="M1.90593 4.259H28.5889C29.6415 4.259 30.4948 3.40568 30.4948 2.35307C30.4948 1.30046 29.6415 0.447144 28.5889 0.447144H1.90593C0.85332 0.447144 0 1.30046 0 2.35307C0 3.40568 0.85332 4.259 1.90593 4.259Z" fill="black"/>
<path d="M28.5889 18.2358H1.90593C0.85332 18.2358 0 19.0892 0 20.1418C0 21.1944 0.85332 22.0477 1.90593 22.0477H28.5889C29.6415 22.0477 30.4948 21.1944 30.4948 20.1418C30.4948 19.0892 29.6415 18.2358 28.5889 18.2358Z" fill="black"/>
</svg>
