<svg width="21" height="21" viewBox="0 0 21 21" fill="none" xmlns="http://www.w3.org/2000/svg">
<path d="M12.3558 10.5L20.6155 2.2412C21.1282 1.72848 21.1282 0.897212 20.6155 0.384537C20.1027 -0.128179 19.2715 -0.128179 18.7588 0.384537L10.5 8.64418L2.2412 0.384537C1.72848 -0.128179 0.897212 -0.128179 0.384537 0.384537C-0.128138 0.897253 -0.128179 1.72852 0.384537 2.2412L8.64418 10.5L0.384537 18.7588C-0.128179 19.2715 -0.128179 20.1028 0.384537 20.6155C0.897253 21.1281 1.72852 21.1282 2.2412 20.6155L10.5 12.3558L18.7588 20.6155C19.2715 21.1282 20.1027 21.1282 20.6154 20.6155C21.1281 20.1027 21.1281 19.2715 20.6154 18.7588L12.3558 10.5Z" fill="black"/>
</svg>
