<svg width="37" height="37" viewBox="0 0 37 37" fill="none" xmlns="http://www.w3.org/2000/svg">
<g clip-path="url(#clip0_152_50)">
<path d="M36.9291 8.54395L23.9513 21.5217C22.5043 22.9651 20.5439 23.7757 18.5 23.7757C16.4561 23.7757 14.4957 22.9651 13.0487 21.5217L0.0709167 8.54395C0.0493333 8.78753 0 9.00799 0 9.25003V27.75C0.00244795 29.7937 0.81536 31.7529 2.26042 33.1979C3.70548 34.643 5.66471 35.4559 7.70833 35.4584H29.2917C31.3353 35.4559 33.2945 34.643 34.7396 33.1979C36.1846 31.7529 36.9976 29.7937 37 27.75V9.25003C37 9.00799 36.9507 8.78753 36.9291 8.54395Z" fill="#BF78B0"/>
<path d="M21.7714 19.3417L35.853 5.25858C35.1708 4.12749 34.2087 3.19127 33.0595 2.54021C31.9102 1.88915 30.6125 1.54523 29.2917 1.54163H7.70834C6.38747 1.54523 5.08982 1.88915 3.94054 2.54021C2.79127 3.19127 1.82916 4.12749 1.147 5.25858L15.2286 19.3417C16.0974 20.2071 17.2737 20.6929 18.5 20.6929C19.7263 20.6929 20.9026 20.2071 21.7714 19.3417Z" fill="#BF78B0"/>
</g>
<defs>
<clipPath id="clip0_152_50">
<rect width="37" height="37" fill="white"/>
</clipPath>
</defs>
</svg>
