<svg width="8" height="16" viewBox="0 0 8 16" fill="none" xmlns="http://www.w3.org/2000/svg">
<path d="M1.30521 15.1664C1.38335 15.1668 1.46081 15.1518 1.53315 15.1223C1.60549 15.0928 1.67129 15.0492 1.72677 14.9942L6.57771 10.1432C6.85418 9.86747 7.07353 9.53987 7.22319 9.1792C7.37285 8.81852 7.44989 8.43186 7.44989 8.04137C7.44989 7.65088 7.37285 7.26422 7.22319 6.90355C7.07353 6.54287 6.85418 6.21527 6.57771 5.9395L1.72677 1.08856C1.67141 1.0332 1.60569 0.989283 1.53336 0.959322C1.46102 0.929361 1.3835 0.91394 1.30521 0.91394C1.22692 0.91394 1.14939 0.929361 1.07706 0.959322C1.00473 0.989283 0.939006 1.0332 0.883646 1.08856C0.828285 1.14392 0.78437 1.20964 0.754409 1.28197C0.724449 1.3543 0.709028 1.43183 0.709028 1.51012C0.709028 1.58841 0.724449 1.66594 0.754409 1.73827C0.78437 1.8106 0.828285 1.87632 0.883646 1.93168L5.73458 6.78262C6.06815 7.11661 6.25552 7.56934 6.25552 8.04137C6.25552 8.5134 6.06815 8.96614 5.73458 9.30012L0.883646 14.1511C0.827994 14.2063 0.783822 14.2719 0.753678 14.3443C0.723534 14.4166 0.708015 14.4942 0.708015 14.5726C0.708015 14.651 0.723534 14.7286 0.753678 14.801C0.783822 14.8733 0.827994 14.939 0.883646 14.9942C0.939126 15.0492 1.00492 15.0928 1.07726 15.1223C1.1496 15.1518 1.22707 15.1668 1.30521 15.1664Z" fill="black"/>
</svg>
