<svg width="27" height="28" viewBox="0 0 27 28" fill="none" xmlns="http://www.w3.org/2000/svg">
<path d="M26.6845 26.0245L19.9748 19.0663C21.8033 16.7473 22.7023 13.7881 22.4859 10.801C22.2694 7.81379 20.9542 5.02716 18.8121 3.01747C16.67 1.00778 13.865 -0.0712239 10.9773 0.00365169C8.08964 0.0785273 5.34016 1.30155 3.29761 3.41975C1.25507 5.53795 0.0757227 8.38926 0.00352127 11.3839C-0.0686802 14.3786 0.971785 17.2874 2.9097 19.5088C4.84762 21.7302 7.53473 23.0942 10.4152 23.3187C13.2957 23.5431 16.1492 22.6108 18.3854 20.7147L25.095 27.6728C25.307 27.8851 25.591 28.0026 25.8857 28C26.1804 27.9973 26.4624 27.8747 26.6708 27.6586C26.8792 27.4424 26.9974 27.1501 27 26.8444C27.0025 26.5388 26.8892 26.2443 26.6845 26.0245ZM11.2767 21.0201C9.49817 21.0201 7.75954 20.4731 6.28072 19.4484C4.80189 18.4237 3.64928 16.9672 2.96865 15.2632C2.28802 13.5591 2.10994 11.6841 2.45692 9.87505C2.8039 8.06605 3.66037 6.40437 4.91801 5.10016C6.17565 3.79594 7.77798 2.90775 9.52237 2.54792C11.2668 2.18809 13.0749 2.37277 14.7181 3.0786C16.3613 3.78444 17.7657 4.97974 18.7538 6.51334C19.7419 8.04693 20.2694 9.84996 20.2694 11.6944C20.2667 14.1669 19.3184 16.5373 17.6325 18.2856C15.9467 20.0339 13.6609 21.0173 11.2767 21.0201Z" fill="black"/>
</svg>
